<svg width="858" height="488" viewBox="0 0 858 488" fill="none" xmlns="http://www.w3.org/2000/svg">
<path d="M626.467 487H196.367C163.134 487 133.92 464.989 124.755 433.044L55.3808 191.227C27.9721 95.6885 99.6919 0.5 199.084 0.5H643.051C747.019 0.5 819.241 103.995 783.371 201.579L696.393 438.203C685.617 467.518 657.7 487 626.467 487Z" fill="black" stroke="black"/>
<path d="M451.84 272H366.997C368.276 297.919 349.726 314.119 326 317.927C331.699 376.246 362.577 419.445 416.077 441.102C458.469 423.765 492.895 390.57 503.362 343.961C512.899 301.273 491.906 272 451.84 272Z" fill="white"/>
<path d="M451.84 272H366.997C368.276 297.919 349.726 314.119 326 317.927C331.699 376.246 362.577 419.445 416.077 441.102C458.469 423.765 492.895 390.57 503.362 343.961C512.899 301.273 491.906 272 451.84 272ZM497.024 342.596C488.01 383.806 457.539 416.831 416.077 434.281C367.404 413.875 339.259 373.404 333.153 322.873C354.959 317.359 371.94 301.387 373.452 278.196H452.189C490.685 277.968 505.048 307.639 497.024 342.596Z" fill="#0095DA"/>
<path d="M411.366 372.722H420.729L416.367 352.089L411.366 372.722Z" fill="#0095DA"/>
<path d="M452.131 283.88H378.511C375.08 304.911 359.728 320.087 339.549 326.852C346.469 373.404 373.277 409.555 416.193 428.142C453.933 411.374 482.602 381.533 491.499 341.346C498.419 310.197 486.963 283.709 452.131 283.88ZM351.994 331.513H397.41L418.926 308.037L409.738 304.797C408.75 304.399 408.808 303.433 409.738 303.433H419.798L422.939 293.202C423.113 292.52 424.043 292.69 424.043 293.202L425.032 303.433H434.685C435.383 303.433 435.674 304.286 434.394 304.797L424.16 308.208L408.11 331.513H413.402C412.878 333.388 412.297 335.662 411.599 338.277L403.167 338.845L402.237 340.209C399.852 343.051 393.979 350.213 390.49 351.009C388.28 351.521 386.071 349.361 387.001 346.575C387.815 343.904 390.025 341.687 391.304 339.3L351.819 334.411C350.017 334.411 350.191 331.513 351.994 331.513ZM465.622 364.367C462.598 364.367 462.482 365.56 462.482 368.516V382.271C462.482 385.341 462.714 386.364 465.622 386.364V389.092H453.352V386.364C456.143 386.364 456.55 385.398 456.55 382.271V371.585L446.606 383.408V383.92C446.606 385.568 447.537 386.25 449.805 386.25V388.979H419.275V386.25C421.485 386.25 422.88 386.023 422.88 383.977C422.88 382.726 422.299 379.373 421.368 375.735H410.32L408.924 381.248C407.935 384.886 408.226 386.25 412.239 386.25V388.979H386.826V386.25C389.85 386.25 390.141 385.284 390.141 382.101V369.369L382.407 388.126L374.557 368.8V382.442C374.557 385.114 374.847 386.25 377.871 386.25V388.979H368.509V386.25C371.707 386.25 371.823 384.375 371.823 381.76V368.459C371.823 366.129 371.823 364.31 368.741 364.31V361.581H378.802L384.21 375.735L389.618 361.581H399.271V364.31C396.247 364.31 396.189 365.503 396.189 368.459V382.215C396.189 384.886 396.48 385.625 397.294 385.966C399.096 386.648 402.644 386.478 403.632 384.488C404.563 382.556 405.319 380.509 405.842 378.406L418.868 328.386L430.615 377.497C431.894 382.783 432.65 384.147 433.813 385.227C435.034 386.194 438.814 386.989 440.268 385.511C440.558 385.227 440.791 384.602 440.791 382.271V368.516C440.791 365.39 440.558 364.367 437.593 364.367V361.638H449.921V364.367C446.897 364.367 446.723 365.617 446.723 368.516V379.316L456.666 367.436V366.924C456.666 365.674 455.852 364.367 453.468 364.367V361.638H465.738V364.367H465.622ZM464.401 334.411L425.439 337.253L424.043 331.456H464.401C466.494 331.513 466.61 334.355 464.401 334.411Z" fill="#0095DA"/>
<path d="M216 132.273C216 107.269 236.269 87 261.273 87H561.254C586.257 87 606.526 107.269 606.526 132.273V132.273C606.526 157.276 586.257 177.545 561.254 177.545H261.273C236.269 177.545 216 157.276 216 132.273V132.273Z" fill="#272741"/>
<path d="M324.747 132.273C324.747 144.774 314.257 154.909 301.316 154.909C288.375 154.909 277.884 144.774 277.884 132.273C277.884 119.771 288.375 109.636 301.316 109.636C314.257 109.636 324.747 119.771 324.747 132.273Z" fill="#2D2828"/>
<path d="M416.295 131.955C416.295 150.707 400.559 165.909 381.147 165.909C361.736 165.909 346 150.707 346 131.955C346 113.202 361.736 98 381.147 98C400.559 98 416.295 113.202 416.295 131.955Z" fill="#122345"/>
<path d="M489.242 132.091C489.242 140.425 482.248 147.182 473.621 147.182C464.994 147.182 458 140.425 458 132.091C458 123.756 464.994 117 473.621 117C482.248 117 489.242 123.756 489.242 132.091Z" fill="#1F1C18"/>
<ellipse cx="559.063" cy="132.273" rx="23.4316" ry="22.6364" fill="#20173D"/>
</svg>
